<svg width="234" height="59" viewBox="0 0 234 59" fill="none" xmlns="http://www.w3.org/2000/svg">
<path d="M234 0H0V44.5324H234V0Z" fill="#CF3339"/>
<path d="M142.735 30.2308V36.556H118.244L131.777 14.1489H120.555V7.82102H144.215L130.75 30.2308H142.735Z" fill="white"/>
<path d="M22.7881 25.2774L29.7248 7.82102H37.7958L25.591 36.556H19.8331L7.80908 7.82102H15.8854L22.7881 25.2774Z" fill="white"/>
<path d="M46.92 7.82365H39.4881V36.556H46.92V7.82365Z" fill="white"/>
<path d="M72.3198 36.5534H63.0673L56.0572 25.4934H55.9786V36.5534H48.5468V7.82365H59.6592C65.3045 7.82365 69.5901 10.5255 69.5901 16.6638C69.5901 20.6138 67.3897 24.0582 63.3345 24.7797L72.3198 36.5534ZM55.9786 20.7007H56.7043C59.1248 20.7007 61.8597 20.2451 61.8597 17.1193C61.8597 13.9936 59.1248 13.5433 56.7043 13.5433H55.9786V20.7007Z" fill="white"/>
<path d="M85.2424 36.556H77.8158V14.1489H70.7297V7.82102H92.3311V14.1489H85.2424V36.556Z" fill="white"/>
<path d="M118.91 7.82102V23.9792C118.91 27.6659 118.755 31.3341 115.913 34.1202C113.524 36.4902 109.772 37.3171 106.435 37.3171C103.098 37.3171 99.349 36.4797 96.9599 34.1202C94.115 31.3341 93.9631 27.679 93.9631 23.9792V7.82102H101.398V22.9522C101.398 26.6863 101.66 30.7627 106.435 30.7627C111.211 30.7627 111.478 26.6863 111.478 22.9522V7.82102H118.91Z" fill="white"/>
<path d="M173.293 21.6566C173.293 30.9523 166.66 37.5067 157.486 37.5067C148.312 37.5067 141.677 30.9523 141.677 21.6566C141.677 12.9666 149.261 6.86775 157.486 6.86775C165.712 6.86775 173.293 12.9666 173.293 21.6566ZM149.41 21.7066C149.41 26.6573 153.049 30.2781 157.486 30.2781C161.924 30.2781 165.557 26.6573 165.557 21.7066C165.557 17.7408 161.919 14.12 157.486 14.12C153.054 14.12 149.41 17.7276 149.41 21.7066Z" fill="white"/>
<path d="M174.925 7.82102H182.352L195.966 25.3907H196.039V7.82102H203.468V36.556H196.039L182.433 18.9522H182.352V36.556H174.925V7.82102Z" fill="white"/>
<path d="M212.566 14.1463V18.9522H225.67V25.2774H212.566V30.2281H226.12V36.5534H205.137V7.82102H226.12V14.1463H212.566Z" fill="white"/>
<path d="M10.9317 58.8868H7.81694V52.3034H10.8583C12.1969 52.3034 13.0195 52.9723 13.0195 54.0072V54.0256C13.0275 54.3209 12.9503 54.6123 12.7974 54.8645C12.6445 55.1168 12.4224 55.3193 12.1576 55.4476C12.9173 55.7399 13.3836 56.1797 13.3836 57.0645V57.0829C13.3836 58.2864 12.4117 58.8868 10.9317 58.8868ZM11.5866 54.2495C11.5866 53.8176 11.2513 53.5727 10.6409 53.5727H9.21844V54.9657H10.544C11.1805 54.9657 11.5918 54.7577 11.5918 54.2679L11.5866 54.2495ZM11.9533 56.8828C11.9533 56.4404 11.6259 56.1692 10.8845 56.1692H9.21844V57.6175H10.9317C11.5682 57.6175 11.9533 57.391 11.9533 56.9012V56.8828Z" fill="#808487"/>
<path d="M18.7093 58.9921C16.9489 58.9921 15.8749 58.0046 15.8749 56.0664V52.3008H17.3157V56.027C17.3157 57.1014 17.8396 57.6544 18.7276 57.6544C19.6157 57.6544 20.1422 57.1277 20.1422 56.0744V52.3008H21.583V56.0191C21.583 58.0125 20.4697 58.9921 18.7093 58.9921Z" fill="#808487"/>
<path d="M26.7856 58.9816C25.7619 58.9853 24.7726 58.6103 24.0062 57.9282L24.8576 56.9012C25.3935 57.3936 26.0886 57.6742 26.8144 57.6912C27.4038 57.6912 27.7601 57.4569 27.7601 57.0698V57.0513C27.7601 56.6853 27.5348 56.4957 26.4503 56.2139C25.1405 55.8768 24.2786 55.5082 24.2786 54.2021V54.181C24.2786 52.9881 25.2348 52.1981 26.5734 52.1981C27.4569 52.1835 28.3177 52.4797 29.007 53.0355L28.2578 54.1257C27.7671 53.7423 27.1728 53.5166 26.5524 53.4779C26.0023 53.4779 25.7115 53.7412 25.7115 54.052V54.0704C25.7115 54.5023 25.9918 54.6444 27.1235 54.9341C28.4543 55.2844 29.2035 55.7636 29.2035 56.9118V56.9302C29.193 58.2469 28.2002 58.9816 26.7856 58.9816Z" fill="#808487"/>
<path d="M31.9148 58.8868V52.3034H33.3556V58.8868H31.9148Z" fill="#808487"/>
<path d="M40.9944 58.8868L37.8194 54.6997V58.8868H36.397V52.3034H37.7277L40.7979 56.3588V52.3034H42.2204V58.8868H40.9944Z" fill="#808487"/>
<path d="M45.1963 58.8868V52.3034H50.1369V53.5938H46.6266V54.9288H49.7151V56.2192H46.6266V57.6017H50.184V58.8894L45.1963 58.8868Z" fill="#808487"/>
<path d="M55.2006 58.9816C54.1768 58.9857 53.1874 58.6108 52.4212 57.9282L53.2725 56.9012C53.8085 57.3936 54.5036 57.6742 55.2294 57.6912C55.8188 57.6912 56.1751 57.4569 56.1751 57.0698V57.0513C56.1751 56.6853 55.9498 56.4957 54.8653 56.2139C53.5555 55.8769 52.6936 55.5082 52.6936 54.2021V54.181C52.6936 52.9881 53.6472 52.1981 54.9858 52.1981C55.8667 52.1878 56.7237 52.4867 57.4089 53.0434L56.6492 54.1362C56.1596 53.7526 55.5661 53.5268 54.9465 53.4884C54.3937 53.4884 54.1056 53.7517 54.1056 54.0625V54.0809C54.1056 54.5128 54.3859 54.655 55.5176 54.9446C56.8457 55.2949 57.5949 55.7742 57.5949 56.9223V56.9407C57.6054 58.2469 56.6152 58.9816 55.2006 58.9816Z" fill="#808487"/>
<path d="M62.5015 58.9816C61.477 58.9854 60.4868 58.6105 59.7194 57.9282L60.5734 56.9012C61.1083 57.3936 61.8026 57.6743 62.5277 57.6912C63.1171 57.6912 63.4733 57.4569 63.4733 57.0698V57.0513C63.4733 56.6853 63.2481 56.4957 62.1635 56.2139C60.8537 55.8768 59.9919 55.5082 59.9919 54.2021V54.181C59.9919 52.9881 60.948 52.1981 62.2867 52.1981C63.1702 52.1835 64.031 52.4797 64.7203 53.0355L63.9711 54.1257C63.4813 53.7424 62.8878 53.5166 62.2683 53.4779C61.7156 53.4779 61.4248 53.7412 61.4248 54.052V54.0704C61.4248 54.5023 61.7051 54.6444 62.8394 54.9341C64.1675 55.2844 64.9168 55.7636 64.9168 56.9118V56.9302C64.9063 58.2469 63.9134 58.9816 62.5015 58.9816Z" fill="#808487"/>
<path d="M74.1064 58.9816C73.0826 58.9857 72.0932 58.6108 71.327 57.9282L72.1783 56.9012C72.7135 57.3932 73.4076 57.6738 74.1326 57.6912C74.722 57.6912 75.0783 57.4569 75.0783 57.0698V57.0513C75.0783 56.6853 74.853 56.4957 73.7684 56.2139C72.4586 55.8768 71.5994 55.5082 71.5994 54.2021V54.181C71.5994 52.9881 72.5529 52.1981 73.8916 52.1981C74.7751 52.1835 75.6359 52.4797 76.3252 53.0355L75.576 54.1257C75.0864 53.7421 74.4928 53.5163 73.8732 53.4779C73.3205 53.4779 73.0297 53.7412 73.0297 54.052V54.0704C73.0297 54.5023 73.31 54.6444 74.4443 54.9341C75.7725 55.2844 76.5217 55.7636 76.5217 56.9118V56.9302C76.5112 58.2469 75.5105 58.9816 74.1064 58.9816Z" fill="#808487"/>
<path d="M79.178 58.8868V52.3034H84.1212V53.5938H80.6109V54.9288H83.6994V56.2192H80.6004V57.6017H84.1552V58.8894L79.178 58.8868Z" fill="#808487"/>
<path d="M89.811 53.6385V58.8868H88.3676V53.6385H86.374V52.3008H91.8045V53.6385H89.811Z" fill="#808487"/>
<path d="M97.0437 58.9921C95.286 58.9921 94.2093 58.0046 94.2093 56.0664V52.3008H95.6501V56.027C95.6501 57.1014 96.174 57.6544 97.0647 57.6544C97.9554 57.6544 98.4767 57.1277 98.4767 56.0744V52.3008H99.9175V56.0191C99.9175 58.0125 98.8041 58.9921 97.0437 58.9921Z" fill="#808487"/>
<path d="M105.327 56.9118H104.232V58.8868H102.791V52.3034H105.468C107.04 52.3034 107.975 53.2356 107.975 54.5813V54.5997C107.975 56.1217 106.797 56.9118 105.327 56.9118ZM106.516 54.6076C106.516 53.9571 106.066 53.6096 105.345 53.6096H104.232V55.6241H105.374C106.095 55.6241 106.516 55.1896 106.516 54.626V54.6076Z" fill="#808487"/>
<path d="M121.857 58.9342H120.602L119.122 54.6234L117.644 58.9315H116.39L114.152 52.2981H115.698L117.055 56.759L118.525 52.2823H119.758L121.228 56.759L122.585 52.2981H124.091L121.857 58.9342Z" fill="#808487"/>
<path d="M126.63 58.8868V52.3034H128.071V58.8868H126.63Z" fill="#808487"/>
<path d="M134.08 53.6385V58.8868H132.637V53.6385H130.643V52.3008H136.073V53.6385H134.08Z" fill="#808487"/>
<path d="M142.68 58.8868V56.2534H140.021V58.8868H138.58V52.3034H140.021V54.9104H142.68V52.3034H144.121V58.8868H142.68Z" fill="#808487"/>
<path d="M155.904 58.8868L152.732 54.6997V58.8868H151.309V52.3034H152.637L155.707 56.3588V52.3034H157.13V58.8868H155.904Z" fill="#808487"/>
<path d="M163.289 59C161.266 59 159.815 57.4858 159.815 55.6135V55.5951C159.815 55.1388 159.906 54.6872 160.082 54.2669C160.259 53.8467 160.518 53.4664 160.844 53.1486C161.169 52.8308 161.555 52.5819 161.978 52.4169C162.402 52.2518 162.853 52.1738 163.307 52.1876C165.329 52.1876 166.778 53.7044 166.778 55.5767V55.5951C166.778 56.051 166.687 56.5023 166.511 56.9223C166.334 57.3422 166.075 57.7222 165.75 58.0398C165.425 58.3573 165.039 58.606 164.616 58.7709C164.193 58.9358 163.742 59.0138 163.289 59ZM165.272 55.5951C165.281 55.3271 165.237 55.06 165.142 54.8096C165.046 54.5592 164.902 54.3306 164.717 54.1375C164.532 53.9444 164.31 53.7906 164.065 53.6855C163.819 53.5803 163.555 53.5258 163.289 53.5253C163.024 53.5244 162.761 53.5773 162.518 53.6811C162.274 53.7848 162.053 53.937 161.869 54.1287C161.685 54.3204 161.542 54.5475 161.448 54.7964C161.354 55.0452 161.311 55.3106 161.321 55.5767V55.5951C161.312 55.8632 161.357 56.1304 161.452 56.3808C161.548 56.6312 161.693 56.8598 161.878 57.0528C162.063 57.2459 162.285 57.3996 162.531 57.5047C162.776 57.6099 163.04 57.6643 163.307 57.6649C163.572 57.6658 163.834 57.6128 164.078 57.5091C164.322 57.4054 164.542 57.253 164.725 57.0613C164.909 56.8696 165.052 56.6425 165.146 56.3937C165.24 56.1448 165.283 55.8794 165.272 55.6135V55.5951Z" fill="#808487"/>
<path d="M177.655 58.8868L176.251 56.7801H175.116V58.8868H173.675V52.3034H176.67C178.215 52.3034 179.143 53.1224 179.143 54.4786V54.497C179.164 54.9449 179.038 55.3874 178.784 55.7562C178.53 56.125 178.163 56.3996 177.738 56.5378L179.339 58.8894L177.655 58.8868ZM177.681 54.5496C177.681 53.9308 177.251 53.6096 176.549 53.6096H175.116V55.5003H176.578C177.28 55.5003 177.681 55.1237 177.681 54.5681V54.5496Z" fill="#808487"/>
<path d="M181.846 58.8868V52.3034H186.789V53.5938H183.279V54.9288H186.367V56.2192H183.279V57.6017H186.844V58.8894L181.846 58.8868Z" fill="#808487"/>
<path d="M192.676 59C190.635 59 189.231 57.5622 189.231 55.6135V55.5951C189.227 55.1428 189.314 54.6944 189.486 54.2764C189.658 53.8584 189.911 53.4793 190.231 53.1616C190.552 52.8438 190.932 52.5939 191.35 52.4266C191.768 52.2593 192.215 52.178 192.665 52.1875C193.608 52.1382 194.532 52.4625 195.24 53.0908L194.331 54.1915C193.869 53.7515 193.254 53.5121 192.618 53.5253C191.57 53.5253 190.737 54.4575 190.737 55.5766V55.5951C190.737 56.7985 191.562 57.6833 192.723 57.6833C193.205 57.6977 193.68 57.5595 194.08 57.2883V56.3482H192.628V55.0947H195.473V57.9572C194.697 58.6333 193.703 59.0038 192.676 59Z" fill="#808487"/>
<path d="M202.24 58.8868L200.836 56.7801H199.704V58.8868H198.263V52.3034H201.252C202.795 52.3034 203.722 53.1224 203.722 54.4786V54.497C203.744 54.9449 203.618 55.3874 203.364 55.7562C203.11 56.125 202.743 56.3996 202.318 56.5378L203.919 58.8894L202.24 58.8868ZM202.269 54.5496C202.269 53.9308 201.836 53.6096 201.137 53.6096H199.704V55.5003H201.163C201.865 55.5003 202.269 55.1237 202.269 54.5681V54.5496Z" fill="#808487"/>
<path d="M206.434 58.8868V52.3034H211.374V53.5938H207.864V54.9288H210.945V56.2192H207.864V57.6017H211.422V58.8894L206.434 58.8868Z" fill="#808487"/>
<path d="M217.075 53.6385V58.8868H215.631V53.6385H213.638V52.3008H219.066V53.6385H217.075Z" fill="#808487"/>
<path d="M223.765 58.9816C222.741 58.9853 221.752 58.6103 220.986 57.9282L221.84 56.9012C222.375 57.3936 223.069 57.6743 223.794 57.6912C224.383 57.6912 224.74 57.4569 224.74 57.0698V57.0513C224.74 56.6853 224.514 56.4957 223.43 56.2139C222.12 55.8768 221.258 55.5082 221.258 54.2021V54.181C221.258 52.9881 222.214 52.1981 223.553 52.1981C224.436 52.1835 225.297 52.4797 225.987 53.0355L225.237 54.1257C224.747 53.7428 224.154 53.5171 223.535 53.4779C222.982 53.4779 222.691 53.7412 222.691 54.052V54.0704C222.691 54.5023 222.971 54.6444 224.103 54.9341C225.434 55.2844 226.183 55.7636 226.183 56.9118V56.9302C226.173 58.2469 225.18 58.9816 223.765 58.9816Z" fill="#808487"/>
</svg>
