<svg width="10" height="10" viewBox="0 0 10 10" fill="none" xmlns="http://www.w3.org/2000/svg">
<path d="M5.41618 3.33333C5.7477 3.33333 6.06564 3.46503 6.30006 3.69945C6.53448 3.93387 6.66618 4.25181 6.66618 4.58333C6.66618 4.69384 6.71008 4.79982 6.78822 4.87796C6.86636 4.9561 6.97234 5 7.08284 5C7.19335 5 7.29933 4.9561 7.37747 4.87796C7.45561 4.79982 7.49951 4.69384 7.49951 4.58333C7.49951 4.0308 7.28002 3.5009 6.88932 3.11019C6.49862 2.71949 5.96871 2.5 5.41618 2.5C5.30567 2.5 5.19969 2.5439 5.12155 2.62204C5.04341 2.70018 4.99951 2.80616 4.99951 2.91667C4.99951 3.02717 5.04341 3.13315 5.12155 3.21129C5.19969 3.28943 5.30567 3.33333 5.41618 3.33333Z" fill="#231F20"/>
<path d="M5.41618 1.66659C6.18973 1.66659 6.93159 1.97388 7.47857 2.52086C8.02555 3.06784 8.33284 3.8097 8.33284 4.58325C8.33284 4.69376 8.37674 4.79974 8.45488 4.87788C8.53302 4.95602 8.639 4.99992 8.74951 4.99992C8.86002 4.99992 8.966 4.95602 9.04414 4.87788C9.12228 4.79974 9.16618 4.69376 9.16618 4.58325C9.16618 3.58869 8.77109 2.63486 8.06783 1.9316C7.36457 1.22834 6.41074 0.833252 5.41618 0.833252C5.30567 0.833252 5.19969 0.877151 5.12155 0.955291C5.04341 1.03343 4.99951 1.13941 4.99951 1.24992C4.99951 1.36043 5.04341 1.46641 5.12155 1.54455C5.19969 1.62269 5.30567 1.66659 5.41618 1.66659Z" fill="#231F20"/>
<path d="M9.06217 6.62909C9.03926 6.5622 8.99969 6.50224 8.94721 6.45486C8.89473 6.40748 8.83105 6.37423 8.76217 6.35825L6.26217 5.78742C6.19431 5.77203 6.12368 5.77389 6.05672 5.79281C5.98976 5.81173 5.92861 5.84712 5.87884 5.89575C5.82051 5.94992 5.81634 5.95408 5.54551 6.47075C4.64684 6.05665 3.92676 5.33361 3.51634 4.43325C4.04551 4.16659 4.04967 4.16659 4.10384 4.10409C4.15247 4.05432 4.18786 3.99316 4.20678 3.9262C4.22571 3.85924 4.22756 3.78861 4.21217 3.72075L3.64134 1.24992C3.62536 1.18104 3.59212 1.11736 3.54473 1.06488C3.49735 1.0124 3.4374 0.972836 3.37051 0.949919C3.2732 0.915164 3.17272 0.890044 3.07051 0.874919C2.9652 0.8505 2.85773 0.836543 2.74967 0.833252C2.24134 0.833252 1.75383 1.03519 1.39439 1.39463C1.03494 1.75408 0.833008 2.24159 0.833008 2.74992C0.835213 4.45105 1.51196 6.08187 2.71484 7.28475C3.91772 8.48763 5.54855 9.16438 7.24967 9.16658C7.50137 9.16658 7.75061 9.11701 7.98315 9.02069C8.21569 8.92437 8.42698 8.78319 8.60496 8.60521C8.78294 8.42723 8.92412 8.21594 9.02044 7.98339C9.11677 7.75085 9.16634 7.50162 9.16634 7.24992C9.16647 7.14386 9.15811 7.03797 9.14134 6.93325C9.12383 6.82976 9.09734 6.72798 9.06217 6.62909Z" fill="#231F20"/>
</svg>
