<svg width="12" height="10" viewBox="0 0 12 10" fill="none" xmlns="http://www.w3.org/2000/svg">
<path d="M10.2 0H1.8C1.32261 0 0.864773 0.189642 0.527208 0.527208C0.189642 0.864773 0 1.32261 0 1.8V7.8C0 8.27739 0.189642 8.73523 0.527208 9.07279C0.864773 9.41036 1.32261 9.6 1.8 9.6H10.2C10.6774 9.6 11.1352 9.41036 11.4728 9.07279C11.8104 8.73523 12 8.27739 12 7.8V1.8C12 1.32261 11.8104 0.864773 11.4728 0.527208C11.1352 0.189642 10.6774 0 10.2 0ZM1.8 1.2H10.2C10.3591 1.2 10.5117 1.26321 10.6243 1.37574C10.7368 1.48826 10.8 1.64087 10.8 1.8L6 4.728L1.2 1.8C1.2 1.64087 1.26321 1.48826 1.37574 1.37574C1.48826 1.26321 1.64087 1.2 1.8 1.2ZM10.8 7.8C10.8 7.95913 10.7368 8.11174 10.6243 8.22426C10.5117 8.33679 10.3591 8.4 10.2 8.4H1.8C1.64087 8.4 1.48826 8.33679 1.37574 8.22426C1.26321 8.11174 1.2 7.95913 1.2 7.8V3.168L5.688 5.91C5.77921 5.96266 5.88268 5.99038 5.988 5.99038C6.09332 5.99038 6.19679 5.96266 6.288 5.91L10.8 3.168V7.8Z" fill="black"/>
</svg>
