<?xml version="1.0" encoding="utf-8"?>
<!-- Generator: Adobe Illustrator 24.0.2, SVG Export Plug-In . SVG Version: 6.00 Build 0)  -->
<svg version="1.1" id="Layer_1" xmlns="http://www.w3.org/2000/svg" xmlns:xlink="http://www.w3.org/1999/xlink" x="0px" y="0px"
	 viewBox="0 0 16 6.09" style="enable-background:new 0 0 16 6.09;" xml:space="preserve">
<style type="text/css">
	.st0{fill:#CE3338;}
	.st1{fill:#FFFFFF;}
	.st2{fill:#808386;}
</style>
<path class="st0" d="M16,0.73H0v3.04h16V0.73z"/>
<path class="st1" d="M9.76,2.79v0.43H8.09l0.93-1.53H8.24V1.26h1.62L8.94,2.79H9.76z"/>
<path class="st1" d="M1.56,2.46l0.47-1.19h0.55L1.75,3.23H1.36L0.53,1.26h0.55L1.56,2.46z"/>
<path class="st1" d="M3.21,1.26H2.7v1.96h0.51V1.26z"/>
<path class="st1" d="M4.94,3.23H4.31L3.83,2.47H3.83v0.76H3.32V1.26h0.76c0.39,0,0.68,0.18,0.68,0.6c0,0.27-0.15,0.51-0.43,0.55
	L4.94,3.23z M3.83,2.14h0.05c0.17,0,0.35-0.03,0.35-0.24c0-0.21-0.19-0.24-0.35-0.24H3.83V2.14z"/>
<path class="st1" d="M5.83,3.23H5.32V1.69H4.84V1.26h1.48v0.43H5.83V3.23z"/>
<path class="st1" d="M8.13,1.26v1.1c0,0.25-0.01,0.5-0.2,0.69C7.76,3.22,7.51,3.28,7.28,3.28c-0.23,0-0.48-0.06-0.65-0.22
	c-0.19-0.19-0.2-0.44-0.2-0.69v-1.1h0.51V2.3c0,0.26,0.02,0.53,0.34,0.53c0.33,0,0.34-0.28,0.34-0.53V1.26H8.13z"/>
<path class="st1" d="M11.85,2.21c0,0.64-0.45,1.08-1.08,1.08S9.69,2.84,9.69,2.21c0-0.59,0.52-1.01,1.08-1.01
	C11.33,1.2,11.85,1.61,11.85,2.21z M10.22,2.21c0,0.34,0.25,0.59,0.55,0.59c0.3,0,0.55-0.25,0.55-0.59c0-0.27-0.25-0.52-0.55-0.52
	C10.47,1.69,10.22,1.94,10.22,2.21z"/>
<path class="st1" d="M11.96,1.26h0.51l0.93,1.2h0v-1.2h0.51v1.96H13.4l-0.93-1.2h-0.01v1.2h-0.51V1.26z"/>
<path class="st1" d="M14.53,1.69v0.33h0.9v0.43h-0.9v0.34h0.93v0.43h-1.43V1.26h1.43v0.43H14.53z"/>
<path class="st2" d="M0.75,4.75H0.53V4.3h0.21c0.09,0,0.15,0.05,0.15,0.12v0c0,0.02,0,0.04-0.02,0.06C0.86,4.5,0.85,4.51,0.83,4.52
	c0.05,0.02,0.08,0.05,0.08,0.11v0C0.92,4.71,0.85,4.75,0.75,4.75z M0.79,4.44c0-0.03-0.02-0.05-0.06-0.05h-0.1v0.1h0.09
	C0.76,4.49,0.79,4.47,0.79,4.44L0.79,4.44z M0.82,4.62c0-0.03-0.02-0.05-0.07-0.05H0.63v0.1h0.12C0.79,4.67,0.82,4.65,0.82,4.62
	L0.82,4.62z"/>
<path class="st2" d="M1.28,4.76c-0.12,0-0.19-0.07-0.19-0.2V4.3h0.1v0.25c0,0.07,0.04,0.11,0.1,0.11c0.06,0,0.1-0.04,0.1-0.11V4.3
	h0.1v0.25C1.48,4.69,1.4,4.76,1.28,4.76z"/>
<path class="st2" d="M1.83,4.76c-0.07,0-0.14-0.03-0.19-0.07L1.7,4.62c0.04,0.03,0.08,0.05,0.13,0.05c0.04,0,0.06-0.02,0.06-0.04v0
	c0-0.03-0.02-0.04-0.09-0.06C1.72,4.55,1.66,4.52,1.66,4.43v0c0-0.08,0.07-0.14,0.16-0.14c0.06,0,0.12,0.02,0.17,0.06L1.93,4.43
	C1.9,4.4,1.86,4.39,1.82,4.38c-0.04,0-0.06,0.02-0.06,0.04v0c0,0.03,0.02,0.04,0.1,0.06C1.95,4.51,2,4.54,2,4.62v0
	C2,4.71,1.93,4.76,1.83,4.76z"/>
<path class="st2" d="M2.18,4.75V4.3h0.1v0.45H2.18z"/>
<path class="st2" d="M2.8,4.75L2.59,4.47v0.29h-0.1V4.3h0.09l0.21,0.28V4.3h0.1v0.45H2.8z"/>
<path class="st2" d="M3.09,4.75V4.3h0.34v0.09H3.19v0.09H3.4v0.09H3.19v0.09h0.24v0.09L3.09,4.75z"/>
<path class="st2" d="M3.77,4.76c-0.07,0-0.14-0.03-0.19-0.07l0.06-0.07c0.04,0.03,0.08,0.05,0.13,0.05c0.04,0,0.06-0.02,0.06-0.04v0
	c0-0.03-0.02-0.04-0.09-0.06C3.66,4.55,3.6,4.52,3.6,4.43v0c0-0.08,0.07-0.14,0.16-0.14c0.06,0,0.12,0.02,0.17,0.06L3.87,4.43
	C3.84,4.4,3.8,4.39,3.76,4.38C3.72,4.38,3.7,4.4,3.7,4.42v0c0,0.03,0.02,0.04,0.1,0.06c0.09,0.02,0.14,0.06,0.14,0.14v0
	C3.94,4.71,3.87,4.76,3.77,4.76z"/>
<path class="st2" d="M4.27,4.76c-0.07,0-0.14-0.03-0.19-0.07l0.06-0.07c0.04,0.03,0.08,0.05,0.13,0.05c0.04,0,0.06-0.02,0.06-0.04v0
	c0-0.03-0.02-0.04-0.09-0.06C4.16,4.55,4.1,4.52,4.1,4.43v0c0-0.08,0.07-0.14,0.16-0.14c0.06,0,0.12,0.02,0.17,0.06L4.37,4.43
	C4.34,4.4,4.3,4.39,4.26,4.38C4.22,4.38,4.2,4.4,4.2,4.42v0c0,0.03,0.02,0.04,0.1,0.06c0.09,0.02,0.14,0.06,0.14,0.14v0
	C4.44,4.71,4.37,4.76,4.27,4.76z"/>
<path class="st2" d="M5.07,4.76C5,4.76,4.93,4.74,4.88,4.69l0.06-0.07c0.04,0.03,0.08,0.05,0.13,0.05c0.04,0,0.06-0.02,0.06-0.04v0
	c0-0.03-0.02-0.04-0.09-0.06C4.95,4.55,4.9,4.52,4.9,4.43v0c0-0.08,0.07-0.14,0.16-0.14c0.06,0,0.12,0.02,0.17,0.06L5.17,4.43
	C5.13,4.4,5.09,4.39,5.05,4.38c-0.04,0-0.06,0.02-0.06,0.04v0c0,0.03,0.02,0.04,0.1,0.06c0.09,0.02,0.14,0.06,0.14,0.14v0
	C5.23,4.71,5.16,4.76,5.07,4.76z"/>
<path class="st2" d="M5.41,4.75V4.3h0.34v0.09H5.51v0.09h0.21v0.09H5.51v0.09h0.24v0.09L5.41,4.75z"/>
<path class="st2" d="M6.14,4.4v0.36h-0.1V4.4H5.91V4.3h0.37V4.4H6.14z"/>
<path class="st2" d="M6.64,4.76c-0.12,0-0.19-0.07-0.19-0.2V4.3h0.1v0.25c0,0.07,0.04,0.11,0.1,0.11c0.06,0,0.1-0.04,0.1-0.11V4.3
	h0.1v0.25C6.83,4.69,6.76,4.76,6.64,4.76z"/>
<path class="st2" d="M7.2,4.62H7.13v0.14h-0.1V4.3h0.18c0.11,0,0.17,0.06,0.17,0.16v0C7.38,4.56,7.3,4.62,7.2,4.62z M7.28,4.46
	c0-0.04-0.03-0.07-0.08-0.07H7.13v0.14h0.08C7.25,4.53,7.28,4.5,7.28,4.46L7.28,4.46z"/>
<path class="st2" d="M8.33,4.76H8.25l-0.1-0.29l-0.1,0.29H7.96L7.81,4.3h0.11L8,4.61L8.1,4.3h0.08l0.1,0.31L8.38,4.3h0.1L8.33,4.76z
	"/>
<path class="st2" d="M8.66,4.75V4.3h0.1v0.45H8.66z"/>
<path class="st2" d="M9.17,4.4v0.36h-0.1V4.4H8.93V4.3H9.3V4.4H9.17z"/>
<path class="st2" d="M9.76,4.75V4.57H9.57v0.18h-0.1V4.3h0.1v0.18h0.18V4.3h0.1v0.45H9.76z"/>
<path class="st2" d="M10.66,4.75l-0.22-0.29v0.29h-0.1V4.3h0.09l0.21,0.28V4.3h0.1v0.45H10.66z"/>
<path class="st2" d="M11.17,4.76c-0.14,0-0.24-0.1-0.24-0.23v0c0-0.03,0.01-0.06,0.02-0.09c0.01-0.03,0.03-0.05,0.05-0.08
	c0.02-0.02,0.05-0.04,0.08-0.05c0.03-0.01,0.06-0.02,0.09-0.02c0.14,0,0.24,0.1,0.24,0.23v0c0,0.03-0.01,0.06-0.02,0.09
	c-0.01,0.03-0.03,0.05-0.05,0.08c-0.02,0.02-0.05,0.04-0.08,0.05C11.23,4.76,11.2,4.76,11.17,4.76z M11.3,4.53
	c0-0.02,0-0.04-0.01-0.05c-0.01-0.02-0.02-0.03-0.03-0.05c-0.01-0.01-0.03-0.02-0.04-0.03c-0.02-0.01-0.03-0.01-0.05-0.01
	c-0.02,0-0.04,0-0.05,0.01c-0.02,0.01-0.03,0.02-0.04,0.03c-0.01,0.01-0.02,0.03-0.03,0.05c-0.01,0.02-0.01,0.04-0.01,0.05v0
	c0,0.02,0,0.04,0.01,0.05c0.01,0.02,0.02,0.03,0.03,0.05c0.01,0.01,0.03,0.02,0.04,0.03c0.02,0.01,0.03,0.01,0.05,0.01
	c0.02,0,0.04,0,0.05-0.01c0.02-0.01,0.03-0.02,0.04-0.03c0.01-0.01,0.02-0.03,0.03-0.05C11.3,4.57,11.3,4.55,11.3,4.53L11.3,4.53z"
	/>
<path class="st2" d="M12.15,4.75l-0.1-0.14h-0.08v0.14h-0.1V4.3h0.2c0.11,0,0.17,0.06,0.17,0.15v0c0,0.03-0.01,0.06-0.02,0.09
	s-0.04,0.04-0.07,0.05l0.11,0.16L12.15,4.75z M12.15,4.46c0-0.04-0.03-0.06-0.08-0.06h-0.1v0.13h0.1
	C12.12,4.52,12.15,4.5,12.15,4.46L12.15,4.46z"/>
<path class="st2" d="M12.43,4.75V4.3h0.34v0.09h-0.24v0.09h0.21v0.09h-0.21v0.09h0.24v0.09L12.43,4.75z"/>
<path class="st2" d="M13.17,4.76c-0.14,0-0.24-0.1-0.24-0.23v0c0-0.03,0.01-0.06,0.02-0.09c0.01-0.03,0.03-0.05,0.05-0.08
	c0.02-0.02,0.05-0.04,0.08-0.05c0.03-0.01,0.06-0.02,0.09-0.02c0.06,0,0.13,0.02,0.18,0.06l-0.06,0.08
	c-0.03-0.03-0.07-0.05-0.12-0.05c-0.07,0-0.13,0.06-0.13,0.14v0c0,0.08,0.06,0.14,0.14,0.14c0.03,0,0.07-0.01,0.09-0.03V4.58h-0.1
	V4.49h0.19v0.2C13.31,4.74,13.24,4.76,13.17,4.76z"/>
<path class="st2" d="M13.83,4.75l-0.1-0.14h-0.08v0.14h-0.1V4.3h0.2c0.11,0,0.17,0.06,0.17,0.15v0c0,0.03-0.01,0.06-0.02,0.09
	s-0.04,0.04-0.07,0.05l0.11,0.16L13.83,4.75z M13.83,4.46c0-0.04-0.03-0.06-0.08-0.06h-0.1v0.13h0.1C13.8,4.52,13.83,4.5,13.83,4.46
	L13.83,4.46z"/>
<path class="st2" d="M14.12,4.75V4.3h0.34v0.09h-0.24v0.09h0.21v0.09h-0.21v0.09h0.24v0.09L14.12,4.75z"/>
<path class="st2" d="M14.84,4.4v0.36h-0.1V4.4h-0.14V4.3h0.37V4.4H14.84z"/>
<path class="st2" d="M15.3,4.76c-0.07,0-0.14-0.03-0.19-0.07l0.06-0.07c0.04,0.03,0.08,0.05,0.13,0.05c0.04,0,0.06-0.02,0.06-0.04v0
	c0-0.03-0.02-0.04-0.09-0.06c-0.09-0.02-0.15-0.05-0.15-0.14v0c0-0.08,0.07-0.14,0.16-0.14c0.06,0,0.12,0.02,0.17,0.06L15.4,4.43
	c-0.03-0.03-0.07-0.04-0.12-0.04c-0.04,0-0.06,0.02-0.06,0.04v0c0,0.03,0.02,0.04,0.1,0.06c0.09,0.02,0.14,0.06,0.14,0.14v0
	C15.46,4.71,15.4,4.76,15.3,4.76z"/>
</svg>
