<svg width="28" height="29" viewBox="0 0 28 29" fill="none" xmlns="http://www.w3.org/2000/svg">
<path d="M18.645 12.5755C18.6452 12.8462 18.541 13.106 18.355 13.2981L15.41 16.3168L14.86 16.8805C14.7462 16.9975 14.611 17.0903 14.4621 17.1537C14.3133 17.217 14.1537 17.2496 13.9925 17.2496C13.8313 17.2496 13.6717 17.217 13.5229 17.1537C13.374 17.0903 13.2388 16.9975 13.125 16.8805L12.58 16.3168L9.68001 13.3443C9.49087 13.1602 9.37613 12.9099 9.35853 12.6432C9.34094 12.3764 9.42177 12.1127 9.58501 11.9041C9.67936 11.7926 9.79612 11.7032 9.92729 11.6422C10.0585 11.5811 10.201 11.5499 10.345 11.5505C10.6077 11.5476 10.8609 11.6506 11.05 11.8375L14 14.8664L16.9 11.8939C17.0811 11.7004 17.3264 11.5836 17.5875 11.5665C17.8486 11.5494 18.1064 11.6333 18.31 11.8016C18.4164 11.8987 18.5013 12.018 18.5591 12.1515C18.6169 12.2849 18.6462 12.4295 18.645 12.5755ZM27.5 14.4C27.5 11.6632 26.7082 8.98787 25.2248 6.7123C23.7414 4.43674 21.633 2.66315 19.1662 1.61582C16.6994 0.568496 13.985 0.294467 11.3663 0.82839C8.74754 1.36231 6.34207 2.68021 4.45407 4.61542C2.56606 6.55063 1.28031 9.01623 0.759405 11.7004C0.238504 14.3847 0.505849 17.1669 1.52763 19.6954C2.54942 22.2239 4.27974 24.385 6.49981 25.9055C8.71987 27.426 11.33 28.2375 14 28.2375C17.5804 28.2375 21.0142 26.7796 23.546 24.1846C26.0777 21.5896 27.5 18.0699 27.5 14.4ZM25.5 14.4C25.5 16.7314 24.8255 19.0103 23.5619 20.9488C22.2983 22.8872 20.5022 24.3981 18.4009 25.2902C16.2995 26.1824 13.9873 26.4158 11.7565 25.961C9.52569 25.5062 7.47658 24.3835 5.86828 22.735C4.25997 21.0865 3.16471 18.9862 2.72098 16.6996C2.27725 14.4131 2.50498 12.043 3.37539 9.88913C4.2458 7.73524 5.71978 5.89429 7.61095 4.59906C9.50211 3.30383 11.7255 2.61251 14 2.61251C17.05 2.61251 19.9751 3.8544 22.1317 6.06499C24.2884 8.27557 25.5 11.2738 25.5 14.4Z" fill="black"/>
</svg>
