<?xml version="1.0" encoding="UTF-8"?> <svg xmlns="http://www.w3.org/2000/svg" id="Layer_1" data-name="Layer 1" viewBox="0 0 893.26 224.05"><title>virtuzone-logo</title><rect width="893.26" height="169.11" style="fill:#cf3339"></rect><polygon points="544.87 114.8 544.87 138.82 451.38 138.82 503.04 53.73 460.2 53.73 460.2 29.7 550.52 29.7 499.12 114.8 544.87 114.8" style="fill:#fff"></polygon><polygon points="86.99 95.99 113.47 29.7 144.28 29.7 97.69 138.82 75.71 138.82 29.81 29.7 60.64 29.7 86.99 95.99" style="fill:#fff"></polygon><rect x="150.74" y="29.71" width="28.37" height="109.11" style="fill:#fff"></rect><path d="M369.82,566.38H334.5l-26.76-42h-.3v42H279.07V457.28h42.42c21.55,0,37.91,10.26,37.91,33.57,0,15-8.4,28.08-23.88,30.82Zm-62.38-60.2h2.77c9.24,0,19.68-1.73,19.68-13.6S319.45,479,310.21,479h-2.77Z" transform="translate(-93.75 -427.57)" style="fill:#fff"></path><polygon points="325.4 138.82 297.05 138.82 297.05 53.73 270 53.73 270 29.7 352.46 29.7 352.46 53.73 325.4 53.73 325.4 138.82" style="fill:#fff"></polygon><path d="M547.67,457.27v61.36c0,14-.59,27.93-11.44,38.51-9.12,9-23.44,12.14-36.18,12.14S473,566.1,463.88,557.14c-10.86-10.58-11.44-24.46-11.44-38.51V457.27h28.38v57.46c0,14.18,1,29.66,19.23,29.66s19.25-15.48,19.25-29.66V457.27Z" transform="translate(-93.75 -427.57)" style="fill:#fff"></path><path d="M755.27,509.81c0,35.3-25.32,60.19-60.34,60.19s-60.35-24.89-60.35-60.19c0-33,28.95-56.16,60.35-56.16s60.34,23.16,60.34,56.16M664.1,510c0,18.8,13.89,32.55,30.83,32.55s30.81-13.75,30.81-32.55c0-15.06-13.89-28.81-30.81-28.81S664.1,494.89,664.1,510" transform="translate(-93.75 -427.57)" style="fill:#fff"></path><polygon points="667.75 29.7 696.1 29.7 748.07 96.42 748.35 96.42 748.35 29.7 776.71 29.7 776.71 138.82 748.35 138.82 696.41 71.97 696.1 71.97 696.1 138.82 667.75 138.82 667.75 29.7" style="fill:#fff"></polygon><polygon points="811.44 53.72 811.44 71.97 861.46 71.97 861.46 95.99 811.44 95.99 811.44 114.79 863.18 114.79 863.18 138.81 783.08 138.81 783.08 29.7 863.18 29.7 863.18 53.72 811.44 53.72" style="fill:#fff"></polygon><path d="M135.48,651.19H123.59v-25H135.2c5.11,0,8.25,2.54,8.25,6.47v.07a5.82,5.82,0,0,1-3.29,5.4c2.9,1.11,4.68,2.78,4.68,6.14v.07C144.84,648.91,141.13,651.19,135.48,651.19Zm2.5-17.61c0-1.64-1.28-2.57-3.61-2.57h-5.43v5.29H134c2.43,0,4-.79,4-2.65Zm1.4,10c0-1.68-1.25-2.71-4.08-2.71h-6.36v5.5h6.54c2.43,0,3.9-.86,3.9-2.72Z" transform="translate(-93.75 -427.57)" style="fill:#808487"></path><path d="M165.17,651.59c-6.72,0-10.82-3.75-10.82-11.11v-14.3h5.5v14.15c0,4.08,2,6.18,5.39,6.18s5.4-2,5.4-6V626.18h5.5V640.3C176.14,647.87,171.89,651.59,165.17,651.59Z" transform="translate(-93.75 -427.57)" style="fill:#808487"></path><path d="M196,651.55a15.92,15.92,0,0,1-10.61-4l3.25-3.9a11.47,11.47,0,0,0,7.47,3c2.25,0,3.61-.89,3.61-2.36v-.07c0-1.39-.86-2.11-5-3.18-5-1.28-8.29-2.68-8.29-7.64v-.08c0-4.53,3.65-7.53,8.76-7.53a14.47,14.47,0,0,1,9.29,3.18l-2.86,4.14a11.8,11.8,0,0,0-6.51-2.46c-2.1,0-3.21,1-3.21,2.18v.07c0,1.64,1.07,2.18,5.39,3.28,5.08,1.33,7.94,3.15,7.94,7.51v.07C205.19,648.76,201.4,651.55,196,651.55Z" transform="translate(-93.75 -427.57)" style="fill:#808487"></path><path d="M215.58,651.19v-25h5.5v25Z" transform="translate(-93.75 -427.57)" style="fill:#808487"></path><path d="M250.24,651.19l-12.12-15.9v15.9h-5.43v-25h5.08l11.72,15.4v-15.4h5.43v25Z" transform="translate(-93.75 -427.57)" style="fill:#808487"></path><path d="M266.28,651.19v-25h18.86v4.9h-13.4v5.07h11.79v4.9H271.74v5.25h13.58v4.89Z" transform="translate(-93.75 -427.57)" style="fill:#808487"></path><path d="M304.47,651.55a15.9,15.9,0,0,1-10.61-4l3.25-3.9a11.47,11.47,0,0,0,7.47,3c2.25,0,3.61-.89,3.61-2.36v-.07c0-1.39-.86-2.11-5-3.18-5-1.28-8.29-2.68-8.29-7.64v-.08c0-4.53,3.64-7.53,8.75-7.53A14.45,14.45,0,0,1,312.9,629L310,633.15a11.75,11.75,0,0,0-6.5-2.46c-2.11,0-3.21,1-3.21,2.18v.07c0,1.64,1.07,2.18,5.39,3.28,5.07,1.33,7.93,3.15,7.93,7.51v.07C313.65,648.76,309.87,651.55,304.47,651.55Z" transform="translate(-93.75 -427.57)" style="fill:#808487"></path><path d="M332.34,651.55a15.94,15.94,0,0,1-10.62-4l3.26-3.9a11.44,11.44,0,0,0,7.46,3c2.25,0,3.61-.89,3.61-2.36v-.07c0-1.39-.86-2.11-5-3.18-5-1.28-8.29-2.68-8.29-7.64v-.08c0-4.53,3.65-7.53,8.76-7.53a14.47,14.47,0,0,1,9.29,3.18l-2.86,4.14a11.77,11.77,0,0,0-6.5-2.46c-2.11,0-3.22,1-3.22,2.18v.07c0,1.64,1.07,2.18,5.4,3.28,5.07,1.33,7.93,3.15,7.93,7.51v.07C341.52,648.76,337.73,651.55,332.34,651.55Z" transform="translate(-93.75 -427.57)" style="fill:#808487"></path><path d="M376.64,651.55a15.9,15.9,0,0,1-10.61-4l3.25-3.9a11.46,11.46,0,0,0,7.46,3c2.25,0,3.61-.89,3.61-2.36v-.07c0-1.39-.86-2.11-5-3.18-5-1.28-8.28-2.68-8.28-7.64v-.08c0-4.53,3.64-7.53,8.75-7.53a14.47,14.47,0,0,1,9.29,3.18l-2.86,4.14a11.75,11.75,0,0,0-6.5-2.46c-2.11,0-3.22,1-3.22,2.18v.07c0,1.64,1.07,2.18,5.4,3.28,5.07,1.33,7.93,3.15,7.93,7.51v.07C385.82,648.76,382,651.55,376.64,651.55Z" transform="translate(-93.75 -427.57)" style="fill:#808487"></path><path d="M396,651.19v-25h18.87v4.9h-13.4v5.07h11.79v4.9H401.43v5.25H415v4.89Z" transform="translate(-93.75 -427.57)" style="fill:#808487"></path><path d="M436.59,631.26v19.93h-5.51V631.26h-7.61v-5.08H444.2v5.08Z" transform="translate(-93.75 -427.57)" style="fill:#808487"></path><path d="M464.2,651.59c-6.71,0-10.82-3.75-10.82-11.11v-14.3h5.5v14.15c0,4.08,2,6.18,5.4,6.18s5.39-2,5.39-6V626.18h5.5V640.3C475.17,647.87,470.92,651.59,464.2,651.59Z" transform="translate(-93.75 -427.57)" style="fill:#808487"></path><path d="M495.82,643.69h-4.18v7.5h-5.5v-25h10.22c6,0,9.57,3.54,9.57,8.65v.07C505.93,640.69,501.43,643.69,495.82,643.69Zm4.54-8.75c0-2.47-1.72-3.79-4.47-3.79h-4.25v7.65H496c2.75,0,4.36-1.65,4.36-3.79Z" transform="translate(-93.75 -427.57)" style="fill:#808487"></path><path d="M558.92,651.37h-4.79L548.48,635l-5.64,16.36h-4.79l-8.54-25.19h5.9l5.18,16.94,5.61-17h4.71l5.61,17,5.18-16.94h5.75Z" transform="translate(-93.75 -427.57)" style="fill:#808487"></path><path d="M577.14,651.19v-25h5.5v25Z" transform="translate(-93.75 -427.57)" style="fill:#808487"></path><path d="M605.58,631.26v19.93h-5.51V631.26h-7.61v-5.08h20.73v5.08Z" transform="translate(-93.75 -427.57)" style="fill:#808487"></path><path d="M638.41,651.19v-10H628.26v10h-5.5v-25h5.5v9.9h10.15v-9.9h5.5v25Z" transform="translate(-93.75 -427.57)" style="fill:#808487"></path><path d="M688.89,651.19l-12.11-15.9v15.9h-5.43v-25h5.07l11.72,15.4v-15.4h5.43v25Z" transform="translate(-93.75 -427.57)" style="fill:#808487"></path><path d="M717.08,651.62c-7.72,0-13.26-5.75-13.26-12.86v-.07a12.94,12.94,0,0,1,13.33-12.94c7.72,0,13.25,5.76,13.25,12.87v.07A12.93,12.93,0,0,1,717.08,651.62Zm7.57-12.93a7.59,7.59,0,0,0-7.57-7.86,7.49,7.49,0,0,0-7.51,7.79v.07a7.6,7.6,0,0,0,7.58,7.86,7.48,7.48,0,0,0,7.5-7.79Z" transform="translate(-93.75 -427.57)" style="fill:#808487"></path><path d="M771.92,651.19l-5.36-8h-4.33v8h-5.5v-25h11.43c5.9,0,9.44,3.11,9.44,8.26v.07a7.76,7.76,0,0,1-5.36,7.75l6.11,8.93Zm.1-16.47c0-2.35-1.64-3.57-4.32-3.57h-5.47v7.18h5.58c2.68,0,4.21-1.43,4.21-3.54Z" transform="translate(-93.75 -427.57)" style="fill:#808487"></path><path d="M787.92,651.19v-25h18.87v4.9h-13.4v5.07h11.79v4.9H793.39v5.25H807v4.89Z" transform="translate(-93.75 -427.57)" style="fill:#808487"></path><path d="M829.26,651.62c-7.79,0-13.15-5.46-13.15-12.86v-.07a12.84,12.84,0,0,1,13.11-12.94,13.77,13.77,0,0,1,9.83,3.43l-3.47,4.18a9.23,9.23,0,0,0-6.54-2.53c-4,0-7.18,3.54-7.18,7.79v.07c0,4.57,3.15,7.93,7.58,7.93a8.8,8.8,0,0,0,5.18-1.5v-3.57h-5.54v-4.76h10.86v10.87A16.22,16.22,0,0,1,829.26,651.62Z" transform="translate(-93.75 -427.57)" style="fill:#808487"></path><path d="M865.77,651.19l-5.36-8h-4.32v8h-5.5v-25H862c5.89,0,9.43,3.11,9.43,8.26v.07a7.76,7.76,0,0,1-5.36,7.75l6.11,8.93Zm.11-16.47c0-2.35-1.65-3.57-4.32-3.57h-5.47v7.18h5.57c2.68,0,4.22-1.43,4.22-3.54Z" transform="translate(-93.75 -427.57)" style="fill:#808487"></path><path d="M881.78,651.19v-25h18.86v4.9h-13.4v5.07H899v4.9H887.24v5.25h13.58v4.89Z" transform="translate(-93.75 -427.57)" style="fill:#808487"></path><path d="M922.4,631.26v19.93h-5.51V631.26h-7.61v-5.08H930v5.08Z" transform="translate(-93.75 -427.57)" style="fill:#808487"></path><path d="M947.94,651.55a15.92,15.92,0,0,1-10.61-4l3.26-3.9a11.44,11.44,0,0,0,7.46,3c2.25,0,3.61-.89,3.61-2.36v-.07c0-1.39-.86-2.11-5-3.18-5-1.28-8.29-2.68-8.29-7.64v-.08c0-4.53,3.65-7.53,8.76-7.53a14.47,14.47,0,0,1,9.29,3.18l-2.86,4.14a11.8,11.8,0,0,0-6.5-2.46c-2.11,0-3.22,1-3.22,2.18v.07c0,1.64,1.07,2.18,5.39,3.28,5.08,1.33,7.94,3.15,7.94,7.51v.07C957.13,648.76,953.34,651.55,947.94,651.55Z" transform="translate(-93.75 -427.57)" style="fill:#808487"></path></svg> 