<svg width="84" height="67" viewBox="0 0 84 67" fill="none" xmlns="http://www.w3.org/2000/svg">
<g opacity="0.31">
<path d="M74.6284 19.8751C73.7417 19.8751 73.0268 19.1564 73.0268 18.2735V16.5899C73.0229 13.836 70.7885 11.6016 68.0346 11.5977H32.4726C31.5898 11.5977 30.8749 10.8829 30.8749 10C30.8749 9.11332 31.5897 8.39844 32.4726 8.39844H68.0346C72.558 8.40234 76.2221 12.0664 76.226 16.5898V18.2773V18.2734C76.226 19.1562 75.5112 19.8751 74.6284 19.8751Z" fill="black"/>
<path d="M68.0354 66.7182H7.99241C7.1096 66.7104 6.39861 65.9878 6.40651 65.1049C6.41432 64.2221 7.13698 63.5111 8.01981 63.519H68.1798C70.6212 63.4682 72.6915 62.0932 72.9923 60.312C73.0509 59.9644 73.1056 59.6206 73.1642 59.2729C73.2892 58.5034 73.4181 57.7104 73.5626 56.9174L80.0001 23.3824C79.8986 21.4683 77.6563 19.8707 75.0118 19.8707L15.1678 19.8746C12.4608 19.8746 10.1756 21.5426 10.1756 23.5191V23.5152C10.1756 23.6168 10.1678 23.7183 10.1483 23.816L3.24988 59.8H3.24598C3.0741 60.6594 2.23818 61.218 1.37878 61.05C0.519398 60.8859 -0.0509217 60.0617 0.105378 59.1984L6.97648 23.3584C7.02726 21.5225 7.92179 19.8272 9.50768 18.5576C11.035 17.3428 13.0429 16.6748 15.1639 16.6748H75.0119C77.133 16.6748 79.1408 17.3428 80.6681 18.5576C82.3009 19.8584 83.2033 21.6201 83.2033 23.5146C83.2033 23.6162 83.1916 23.7177 83.172 23.8154L76.7072 57.5144C76.5627 58.2566 76.4416 59.03 76.3205 59.7761C76.2619 60.1276 76.2072 60.4831 76.1486 60.8347C75.59 64.1589 72.2658 66.6355 68.2424 66.7097L68.0354 66.7182Z" fill="black"/>
<path d="M8.19144 66.7188H7.9805C3.5391 66.6055 0 62.9688 0 58.5274V4.90622C0.003906 2.19921 2.1992 0.00390752 4.9102 7.51304e-06H27.5512H27.5473C29.7895 -0.0038985 31.7465 1.51561 32.3012 3.68752L34.0121 9.55084C34.2582 10.3985 33.7738 11.2891 32.9262 11.5352C32.0785 11.7852 31.1879 11.297 30.9379 10.4493L29.2231 4.55872C29.2153 4.53919 29.2114 4.51966 29.2075 4.49622V4.50013C29.02 3.73451 28.3325 3.20322 27.5473 3.20322H4.91027C3.96886 3.20713 3.20327 3.96495 3.20327 4.90633V58.5275C3.19936 61.2345 5.35167 63.4455 8.05487 63.5158H8.19159C9.07831 63.5158 9.79319 64.2346 9.79319 65.1174C9.79319 66.0002 9.0782 66.7188 8.19144 66.7188Z" fill="black"/>
<path d="M41.6364 60.1446C31.4644 60.1446 23.1874 51.8673 23.1874 41.6956C23.1874 31.5236 31.4647 23.2466 41.6364 23.2466C51.8081 23.2466 60.0854 31.5239 60.0854 41.6956C60.0854 51.8716 51.812 60.1446 41.6364 60.1446ZM41.6364 26.4456C33.2262 26.4456 26.3864 33.2854 26.3864 41.6956C26.3864 50.1018 33.2262 56.9456 41.6364 56.9456C50.0466 56.9456 56.8864 50.1058 56.8864 41.6956C56.8864 33.2854 50.0466 26.4496 41.6364 26.4496V26.4456Z" fill="black"/>
<path d="M44.8905 53.0314H38.3827C37.4998 53.0314 36.785 52.3165 36.785 51.4337V43.7345L34.6092 43.7306C34.0154 43.7306 33.4686 43.4024 33.1912 42.8751C32.9177 42.3477 32.9568 41.711 33.2927 41.2228L40.32 31.0508C40.6208 30.6172 41.113 30.3594 41.6364 30.3594C42.1638 30.3594 42.6559 30.6172 42.9528 31.0508L49.9801 41.2228C50.32 41.7111 50.359 42.3478 50.0817 42.8751C49.8043 43.4024 49.2614 43.7306 48.6637 43.7306H46.4879V51.4337C46.4879 51.8555 46.3199 52.2657 46.0191 52.5626C45.7222 52.8633 45.3123 53.0314 44.8905 53.0314ZM39.9843 49.8322H43.289V42.133C43.289 41.2502 44.0077 40.5314 44.8906 40.5314H45.6171L41.6405 34.7736L37.6639 40.5314H38.3905H38.3827C38.8084 40.5314 39.2147 40.6993 39.5155 41.0001C39.8162 41.3009 39.9842 41.7071 39.9842 42.1329L39.9843 49.8322Z" fill="black"/>
</g>
</svg>
